<svg xmlns="http://www.w3.org/2000/svg" xmlns:xlink="http://www.w3.org/1999/xlink" width="54" height="54" viewBox="0 0 54 54">
  <defs>
    <linearGradient id="linear-gradient" x1="0.5" x2="0.5" y2="1" gradientUnits="objectBoundingBox">
      <stop offset="0" stop-color="#fbaf00"/>
      <stop offset="1" stop-color="#ff6803"/>
    </linearGradient>
  </defs>
  <g id="logo" transform="translate(-12 -22)">
    <circle id="Ellipse_1" data-name="Ellipse 1" cx="27" cy="27" r="27" transform="translate(12 22)" fill="url(#linear-gradient)"/>
    <g id="digits" transform="translate(15.488 39.895)">
      <path id="Path_6" data-name="Path 6" d="M4.6,14H3.555V6.135a2.41,2.41,0,0,1-.352.276,5.743,5.743,0,0,1-.521.308q-.289.152-.609.286a4.429,4.429,0,0,1-.625.209V6.161A6.052,6.052,0,0,0,2.174,5.9q.384-.162.755-.362t.7-.419A5.569,5.569,0,0,0,4.2,4.694H4.6Z" transform="translate(17.895 5.763) rotate(90)" fill="#fff"/>
      <path id="Path_5" data-name="Path 5" d="M4.9-6.716a1.882,1.882,0,0,0-.13-.73,1.446,1.446,0,0,0-.355-.517,1.456,1.456,0,0,0-.53-.308,2.076,2.076,0,0,0-.66-.1,2.184,2.184,0,0,0-.6.083,2.9,2.9,0,0,0-.568.229,3.5,3.5,0,0,0-.533.349,3.852,3.852,0,0,0-.479.451V-8.379a3.112,3.112,0,0,1,.981-.651,3.453,3.453,0,0,1,1.323-.225,3.2,3.2,0,0,1,1.035.162,2.372,2.372,0,0,1,.825.473,2.186,2.186,0,0,1,.549.768A2.59,2.59,0,0,1,5.96-6.8a3.592,3.592,0,0,1-.124.978A3.023,3.023,0,0,1,5.462-5a3.982,3.982,0,0,1-.632.743,8.946,8.946,0,0,1-.9.724q-.641.457-1.057.781a4.672,4.672,0,0,0-.66.606,1.759,1.759,0,0,0-.343.565,1.975,1.975,0,0,0-.1.651H6.31V0H.692V-.451A3.756,3.756,0,0,1,.819-1.479a2.67,2.67,0,0,1,.419-.844A4.685,4.685,0,0,1,2-3.123q.473-.4,1.158-.9A7.324,7.324,0,0,0,3.99-4.7a3.531,3.531,0,0,0,.536-.647,2.325,2.325,0,0,0,.289-.657A2.833,2.833,0,0,0,4.9-6.716Z" transform="translate(19.512 14.105)" fill="#fff"/>
      <path id="Path_4" data-name="Path 4" d="M6.049-2.577a2.654,2.654,0,0,1-.232,1.12,2.474,2.474,0,0,1-.654.863,3.018,3.018,0,0,1-1.012.555,4.1,4.1,0,0,1-1.3.2,3.781,3.781,0,0,1-2.069-.5V-1.454A3.316,3.316,0,0,0,2.888-.73a2.864,2.864,0,0,0,.86-.121,1.929,1.929,0,0,0,.66-.349,1.551,1.551,0,0,0,.425-.552,1.725,1.725,0,0,0,.149-.73q0-1.784-2.539-1.784H1.688v-.882h.717q2.247,0,2.247-1.676,0-1.549-1.714-1.549a2.918,2.918,0,0,0-1.809.647V-8.734A3.955,3.955,0,0,1,3.2-9.255,3.18,3.18,0,0,1,4.234-9.1a2.371,2.371,0,0,1,.793.444,1.969,1.969,0,0,1,.511.686,2.116,2.116,0,0,1,.181.882A2.222,2.222,0,0,1,3.9-4.773v.025a2.872,2.872,0,0,1,.857.225,2.287,2.287,0,0,1,.679.454,2.023,2.023,0,0,1,.448.657A2.1,2.1,0,0,1,6.049-2.577Z" transform="translate(34.974 5.763) rotate(90)" fill="#fff"/>
    </g>
  </g>
</svg>
