<svg xmlns="http://www.w3.org/2000/svg" width="98.239" height="54.673" viewBox="0 0 98.239 54.673">
  <g id="number1" transform="translate(0.5)">
    <path id="Path_8" data-name="Path 8" d="M18.931,57.573H16.564V39.694a5.478,5.478,0,0,1-.8.628,13.054,13.054,0,0,1-1.183.7q-.657.346-1.385.649a10.067,10.067,0,0,1-1.421.476v-2.4a13.758,13.758,0,0,0,1.652-.584q.873-.368,1.717-.823t1.595-.952a12.659,12.659,0,0,0,1.3-.974h.895ZM35.554,42.305a4.279,4.279,0,0,0-.3-1.659,3.213,3.213,0,0,0-2.013-1.876,4.718,4.718,0,0,0-1.5-.231,4.964,4.964,0,0,0-1.356.188,6.6,6.6,0,0,0-1.292.519,7.945,7.945,0,0,0-1.212.794A8.756,8.756,0,0,0,26.8,41.064v-2.54a7.075,7.075,0,0,1,2.229-1.479,7.85,7.85,0,0,1,3.009-.512,7.263,7.263,0,0,1,2.352.368,5.393,5.393,0,0,1,1.876,1.075,4.97,4.97,0,0,1,1.248,1.746,5.889,5.889,0,0,1,.455,2.381,8.165,8.165,0,0,1-.281,2.222,6.873,6.873,0,0,1-.851,1.876A9.052,9.052,0,0,1,35.4,47.89a20.339,20.339,0,0,1-2.035,1.645q-1.457,1.039-2.4,1.775a10.621,10.621,0,0,0-1.5,1.378,4,4,0,0,0-.779,1.284,4.489,4.489,0,0,0-.224,1.479h10.3v2.121H25.987V56.548a8.538,8.538,0,0,1,.289-2.338,6.07,6.07,0,0,1,.952-1.919,10.651,10.651,0,0,1,1.739-1.818q1.075-.909,2.634-2.049a16.648,16.648,0,0,0,1.883-1.544A8.027,8.027,0,0,0,34.7,45.408a5.286,5.286,0,0,0,.657-1.494A6.44,6.44,0,0,0,35.554,42.305ZM50.793,57.573H48.426V39.694a5.477,5.477,0,0,1-.8.628,13.053,13.053,0,0,1-1.183.7q-.657.346-1.385.649a10.067,10.067,0,0,1-1.421.476v-2.4a13.758,13.758,0,0,0,1.652-.584q.873-.368,1.717-.823t1.595-.952a12.659,12.659,0,0,0,1.3-.974h.895Z" transform="translate(-11.773 -17.972)" fill="#fed78c" stroke="#fed78c" stroke-width="1"/>
    <path id="Path_7" data-name="Path 7" d="M18.931,57.573H16.564V39.694a5.478,5.478,0,0,1-.8.628,13.054,13.054,0,0,1-1.183.7q-.657.346-1.385.649a10.067,10.067,0,0,1-1.421.476v-2.4a13.758,13.758,0,0,0,1.652-.584q.873-.368,1.717-.823t1.595-.952a12.659,12.659,0,0,0,1.3-.974h.895ZM35.554,42.305a4.279,4.279,0,0,0-.3-1.659,3.213,3.213,0,0,0-2.013-1.876,4.718,4.718,0,0,0-1.5-.231,4.964,4.964,0,0,0-1.356.188,6.6,6.6,0,0,0-1.292.519,7.945,7.945,0,0,0-1.212.794A8.756,8.756,0,0,0,26.8,41.064v-2.54a7.075,7.075,0,0,1,2.229-1.479,7.85,7.85,0,0,1,3.009-.512,7.263,7.263,0,0,1,2.352.368,5.393,5.393,0,0,1,1.876,1.075,4.97,4.97,0,0,1,1.248,1.746,5.889,5.889,0,0,1,.455,2.381,8.165,8.165,0,0,1-.281,2.222,6.873,6.873,0,0,1-.851,1.876A9.052,9.052,0,0,1,35.4,47.89a20.339,20.339,0,0,1-2.035,1.645q-1.457,1.039-2.4,1.775a10.621,10.621,0,0,0-1.5,1.378,4,4,0,0,0-.779,1.284,4.489,4.489,0,0,0-.224,1.479h10.3v2.121H25.987V56.548a8.538,8.538,0,0,1,.289-2.338,6.07,6.07,0,0,1,.952-1.919,10.651,10.651,0,0,1,1.739-1.818q1.075-.909,2.634-2.049a16.648,16.648,0,0,0,1.883-1.544A8.027,8.027,0,0,0,34.7,45.408a5.286,5.286,0,0,0,.657-1.494A6.44,6.44,0,0,0,35.554,42.305ZM50.793,57.573H48.426V39.694a5.477,5.477,0,0,1-.8.628,13.053,13.053,0,0,1-1.183.7q-.657.346-1.385.649a10.067,10.067,0,0,1-1.421.476v-2.4a13.758,13.758,0,0,0,1.652-.584q.873-.368,1.717-.823t1.595-.952a12.659,12.659,0,0,0,1.3-.974h.895Z" transform="translate(46.446 -17.972)" fill="#fed78c" stroke="#fed78c" stroke-width="1"/>
    <path id="Path_9" data-name="Path 9" d="M0,0V54.673" transform="translate(49.716)" fill="#fed78c" stroke="#fed78c" stroke-width="2" stroke-dasharray="5 5"/>
  </g>
</svg>
