<svg xmlns="http://www.w3.org/2000/svg" xmlns:xlink="http://www.w3.org/1999/xlink" width="67" height="50" viewBox="0 0 67 50">
  <defs>
    <clipPath id="clip-path">
      <rect id="Rectangle_13" data-name="Rectangle 13" width="67" height="50" transform="translate(1497 511)" fill="#fed78c"/>
    </clipPath>
  </defs>
  <g id="taxi" transform="translate(-1497 -511)" clip-path="url(#clip-path)">
    <path id="taxi-solid" d="M51.563,26.969,49.107,17.5a9.117,9.117,0,0,0-8.571-6.786h-1.25V7.143a3.572,3.572,0,0,0-3.571-3.571H21.429a3.572,3.572,0,0,0-3.571,3.571v3.571h-1.25A9.117,9.117,0,0,0,8.036,17.5L5.58,26.969A7.137,7.137,0,0,0,0,33.929v5.357a7.111,7.111,0,0,0,3.571,6.152V50a3.572,3.572,0,0,0,3.571,3.571h3.571A3.572,3.572,0,0,0,14.286,50V46.429H42.857V50a3.572,3.572,0,0,0,3.571,3.571H50A3.572,3.572,0,0,0,53.571,50V45.438a7.113,7.113,0,0,0,3.571-6.152V33.929A7.137,7.137,0,0,0,51.563,26.969ZM10.714,39.286a3.571,3.571,0,1,1,3.571-3.571A3.572,3.572,0,0,1,10.714,39.286Zm2.294-12.5,1.92-7.406a2.02,2.02,0,0,1,1.681-1.522H40.537a1.985,1.985,0,0,1,1.657,1.435l1.941,7.493H13.008Zm33.421,12.5A3.571,3.571,0,1,1,50,35.714,3.572,3.572,0,0,1,46.429,39.286Z" transform="translate(1501.929 507.429)" fill="#fed78c"/>
  </g>
</svg>
